<svg width="53" height="43" viewBox="0 0 53 43">
  <path fill="#FFF" fill-rule="evenodd" d="M40.5706403,1.74118054 L52.1478347,16.8892774 C52.8744599,18.3067957 53.1281278,19.4896979 52.9747772,20.2555211 L49.6670074,35.4036179 C49.2961111,37.2313791 47.9866692,38.457483 46.3592375,38.7698616 L14.9354242,42.9776663 C13.2637909,43.1084486 12.0333305,42.663266 10.8007119,42.1361054 L0.877402462,31.1958132 C0.223167611,29.9588965 -0.139704359,28.610388 0.0504600057,26.9880086 L4.18517229,10.1567899 C4.26351831,8.78515312 5.38497605,7.63146347 6.66599965,7.63210708 L36.4359281,0.0580586714 C38.0206857,-0.19441166 39.5767436,0.37831872 40.5706403,1.74118054 Z M21.4193538,11.7882837 C18.9532812,12.0628802 17.9253136,30.5875142 20.5924114,31.9857462 C22.5505478,32.9345722 36.0393676,25.4992838 36.304318,21.887015 C36.5539714,18.4543322 24.8631649,11.5415916 21.4193538,11.7882837 Z"/>
</svg>
